<mxfile host="app.diagrams.net" modified="2021-09-25T01:18:24.001Z" agent="5.0 (Windows NT 10.0; WOW64) AppleWebKit/537.36 (KHTML, like Gecko) Chrome/69.0.3947.100 Safari/537.36" etag="P9VQBCx3H6dPiP5r6G2-" version="15.2.9" type="github">
  <diagram id="2LaCKZ64pPHxTD8qfaPG" name="Page-1">
    <mxGraphModel dx="658" dy="359" grid="1" gridSize="10" guides="1" tooltips="1" connect="1" arrows="1" fold="1" page="1" pageScale="1" pageWidth="827" pageHeight="1169" math="0" shadow="0">
      <root>
        <mxCell id="0" />
        <mxCell id="1" parent="0" />
        <mxCell id="1lqiZdlfGEn-UdCL97i5-8" value="&lt;font style=&quot;line-height: 70% ; font-size: 10px&quot; face=&quot;Times New Roman&quot;&gt;conv1&lt;br&gt;256x256x64&lt;/font&gt;" style="rounded=1;whiteSpace=wrap;html=1;strokeColor=#000000;fillColor=none;rotation=-90;" vertex="1" parent="1">
          <mxGeometry x="103.75" y="318.75" width="62.5" height="30" as="geometry" />
        </mxCell>
        <mxCell id="1lqiZdlfGEn-UdCL97i5-12" value="" style="edgeStyle=orthogonalEdgeStyle;rounded=0;orthogonalLoop=1;jettySize=auto;html=1;strokeColor=#000000;strokeWidth=1;" edge="1" parent="1" source="1lqiZdlfGEn-UdCL97i5-9" target="1lqiZdlfGEn-UdCL97i5-11">
          <mxGeometry relative="1" as="geometry" />
        </mxCell>
        <mxCell id="1lqiZdlfGEn-UdCL97i5-9" value="conv2" style="rounded=1;whiteSpace=wrap;html=1;strokeColor=#000000;fillColor=none;" vertex="1" parent="1">
          <mxGeometry x="178" y="315" width="40" height="30" as="geometry" />
        </mxCell>
        <mxCell id="1lqiZdlfGEn-UdCL97i5-16" value="" style="edgeStyle=orthogonalEdgeStyle;rounded=0;orthogonalLoop=1;jettySize=auto;html=1;strokeColor=#000000;strokeWidth=1;" edge="1" parent="1" source="1lqiZdlfGEn-UdCL97i5-11" target="1lqiZdlfGEn-UdCL97i5-15">
          <mxGeometry relative="1" as="geometry" />
        </mxCell>
        <mxCell id="1lqiZdlfGEn-UdCL97i5-11" value="conv3" style="rounded=1;whiteSpace=wrap;html=1;strokeColor=#000000;fillColor=none;" vertex="1" parent="1">
          <mxGeometry x="244" y="315" width="40" height="30" as="geometry" />
        </mxCell>
        <mxCell id="1lqiZdlfGEn-UdCL97i5-46" style="edgeStyle=orthogonalEdgeStyle;rounded=0;orthogonalLoop=1;jettySize=auto;html=1;exitX=1;exitY=0.5;exitDx=0;exitDy=0;entryX=0.5;entryY=0;entryDx=0;entryDy=0;strokeColor=#000000;strokeWidth=1;" edge="1" parent="1" source="1lqiZdlfGEn-UdCL97i5-15" target="1lqiZdlfGEn-UdCL97i5-45">
          <mxGeometry relative="1" as="geometry" />
        </mxCell>
        <mxCell id="1lqiZdlfGEn-UdCL97i5-15" value="conv4" style="rounded=1;whiteSpace=wrap;html=1;strokeColor=#000000;fillColor=none;" vertex="1" parent="1">
          <mxGeometry x="306" y="315" width="40" height="30" as="geometry" />
        </mxCell>
        <mxCell id="1lqiZdlfGEn-UdCL97i5-37" style="edgeStyle=orthogonalEdgeStyle;rounded=0;orthogonalLoop=1;jettySize=auto;html=1;exitX=1;exitY=0.5;exitDx=0;exitDy=0;strokeColor=#000000;strokeWidth=1;entryX=0;entryY=0.5;entryDx=0;entryDy=0;" edge="1" parent="1" source="1lqiZdlfGEn-UdCL97i5-24" target="1lqiZdlfGEn-UdCL97i5-33">
          <mxGeometry relative="1" as="geometry">
            <mxPoint x="120" y="409" as="targetPoint" />
          </mxGeometry>
        </mxCell>
        <mxCell id="1lqiZdlfGEn-UdCL97i5-24" value="+" style="ellipse;whiteSpace=wrap;html=1;aspect=fixed;strokeColor=#000000;fillColor=none;" vertex="1" parent="1">
          <mxGeometry x="90" y="401.5" width="15" height="15" as="geometry" />
        </mxCell>
        <mxCell id="1lqiZdlfGEn-UdCL97i5-31" style="edgeStyle=orthogonalEdgeStyle;rounded=0;orthogonalLoop=1;jettySize=auto;html=1;exitX=0;exitY=0;exitDx=20;exitDy=25;exitPerimeter=0;entryX=0.5;entryY=0;entryDx=0;entryDy=0;strokeColor=#000000;strokeWidth=1;" edge="1" parent="1" target="1lqiZdlfGEn-UdCL97i5-24">
          <mxGeometry relative="1" as="geometry">
            <mxPoint x="70" y="370" as="sourcePoint" />
          </mxGeometry>
        </mxCell>
        <mxCell id="1lqiZdlfGEn-UdCL97i5-30" style="edgeStyle=orthogonalEdgeStyle;rounded=0;orthogonalLoop=1;jettySize=auto;html=1;exitX=0;exitY=0;exitDx=20;exitDy=25;exitPerimeter=0;strokeColor=#000000;strokeWidth=1;" edge="1" parent="1">
          <mxGeometry relative="1" as="geometry">
            <mxPoint x="90" y="410.1428571428571" as="targetPoint" />
            <mxPoint x="70" y="410" as="sourcePoint" />
          </mxGeometry>
        </mxCell>
        <mxCell id="1lqiZdlfGEn-UdCL97i5-32" style="edgeStyle=orthogonalEdgeStyle;rounded=0;orthogonalLoop=1;jettySize=auto;html=1;exitX=0;exitY=0;exitDx=20;exitDy=25;exitPerimeter=0;entryX=0.5;entryY=1;entryDx=0;entryDy=0;strokeColor=#000000;strokeWidth=1;" edge="1" parent="1" target="1lqiZdlfGEn-UdCL97i5-24">
          <mxGeometry relative="1" as="geometry">
            <mxPoint x="70" y="450" as="sourcePoint" />
          </mxGeometry>
        </mxCell>
        <mxCell id="1lqiZdlfGEn-UdCL97i5-39" value="" style="edgeStyle=orthogonalEdgeStyle;rounded=0;orthogonalLoop=1;jettySize=auto;html=1;strokeColor=#000000;strokeWidth=1;" edge="1" parent="1" source="1lqiZdlfGEn-UdCL97i5-33" target="1lqiZdlfGEn-UdCL97i5-38">
          <mxGeometry relative="1" as="geometry" />
        </mxCell>
        <mxCell id="1lqiZdlfGEn-UdCL97i5-33" value="conv1" style="rounded=1;whiteSpace=wrap;html=1;strokeColor=#000000;fillColor=none;" vertex="1" parent="1">
          <mxGeometry x="140" y="394" width="40" height="30" as="geometry" />
        </mxCell>
        <mxCell id="1lqiZdlfGEn-UdCL97i5-41" value="" style="edgeStyle=orthogonalEdgeStyle;rounded=0;orthogonalLoop=1;jettySize=auto;html=1;strokeColor=#000000;strokeWidth=1;" edge="1" parent="1" source="1lqiZdlfGEn-UdCL97i5-38" target="1lqiZdlfGEn-UdCL97i5-40">
          <mxGeometry relative="1" as="geometry" />
        </mxCell>
        <mxCell id="1lqiZdlfGEn-UdCL97i5-38" value="conv2" style="rounded=1;whiteSpace=wrap;html=1;strokeColor=#000000;fillColor=none;" vertex="1" parent="1">
          <mxGeometry x="222" y="394" width="40" height="30" as="geometry" />
        </mxCell>
        <mxCell id="1lqiZdlfGEn-UdCL97i5-47" style="edgeStyle=orthogonalEdgeStyle;rounded=0;orthogonalLoop=1;jettySize=auto;html=1;exitX=1;exitY=0.5;exitDx=0;exitDy=0;entryX=0.5;entryY=1;entryDx=0;entryDy=0;strokeColor=#000000;strokeWidth=1;" edge="1" parent="1" source="1lqiZdlfGEn-UdCL97i5-40" target="1lqiZdlfGEn-UdCL97i5-45">
          <mxGeometry relative="1" as="geometry" />
        </mxCell>
        <mxCell id="1lqiZdlfGEn-UdCL97i5-40" value="conv3" style="rounded=1;whiteSpace=wrap;html=1;strokeColor=#000000;fillColor=none;" vertex="1" parent="1">
          <mxGeometry x="307" y="394" width="40" height="30" as="geometry" />
        </mxCell>
        <mxCell id="1lqiZdlfGEn-UdCL97i5-45" value="C" style="ellipse;whiteSpace=wrap;html=1;aspect=fixed;strokeColor=#000000;fillColor=none;" vertex="1" parent="1">
          <mxGeometry x="370" y="362.5" width="15" height="15" as="geometry" />
        </mxCell>
        <mxCell id="1lqiZdlfGEn-UdCL97i5-48" value="" style="shape=cube;whiteSpace=wrap;html=1;boundedLbl=1;backgroundOutline=1;darkOpacity=0.05;darkOpacity2=0.1;strokeColor=#000000;fillColor=none;size=10;" vertex="1" parent="1">
          <mxGeometry x="50" y="349" width="20" height="40" as="geometry" />
        </mxCell>
        <mxCell id="1lqiZdlfGEn-UdCL97i5-53" value="" style="shape=cube;whiteSpace=wrap;html=1;boundedLbl=1;backgroundOutline=1;darkOpacity=0.05;darkOpacity2=0.1;strokeColor=#000000;fillColor=none;size=10;" vertex="1" parent="1">
          <mxGeometry x="50" y="390" width="20" height="40" as="geometry" />
        </mxCell>
        <mxCell id="1lqiZdlfGEn-UdCL97i5-54" value="" style="shape=cube;whiteSpace=wrap;html=1;boundedLbl=1;backgroundOutline=1;darkOpacity=0.05;darkOpacity2=0.1;strokeColor=#000000;fillColor=none;size=10;" vertex="1" parent="1">
          <mxGeometry x="50" y="430" width="20" height="40" as="geometry" />
        </mxCell>
        <object label="&lt;p style=&quot;line-height: 60%&quot;&gt;&lt;span&gt;Conv&lt;/span&gt;&lt;br&gt;&lt;/p&gt;" id="1lqiZdlfGEn-UdCL97i5-58">
          <mxCell style="rounded=0;whiteSpace=wrap;html=1;strokeColor=#000000;fillColor=none;writing-mode=tb-rl;rotation=90;" vertex="1" parent="1">
            <mxGeometry x="387.5" y="366" width="44" height="12" as="geometry" />
          </mxCell>
        </object>
        <mxCell id="1lqiZdlfGEn-UdCL97i5-59" value="" style="shape=image;verticalLabelPosition=bottom;labelBackgroundColor=#ffffff;verticalAlign=top;aspect=fixed;imageAspect=0;image=data:image/jpeg,/9j/4AAQSkZJRgABAQAAAQABAAD/2wBDAAgGBgcGBQgHBwcJCQgKDBQNDAsLDBkSEw8UHRofHh0aHBwgJC4nICIsIxwcKDcpLDAxNDQ0Hyc5PTgyPC4zNDL/2wBDAQkJCQwLDBgNDRgyIRwhMjIyMjIyMjIyMjIyMjIyMjIyMjIyMjIyMjIyMjIyMjIyMjIyMjIyMjIyMjIyMjIyMjL/wAARCAEAAQADASIAAhEBAxEB/8QAHwAAAQUBAQEBAQEAAAAAAAAAAAECAwQFBgcICQoL/8QAtRAAAgEDAwIEAwUFBAQAAAF9AQIDAAQRBRIhMUEGE1FhByJxFDKBkaEII0KxwRVS0fAkM2JyggkKFhcYGRolJicoKSo0NTY3ODk6Q0RFRkdISUpTVFVWV1hZWmNkZWZnaGlqc3R1dnd4eXqDhIWGh4iJipKTlJWWl5iZmqKjpKWmp6ipqrKztLW2t7i5usLDxMXGx8jJytLT1NXW19jZ2uHi4+Tl5ufo6erx8vP09fb3+Pn6/8QAHwEAAwEBAQEBAQEBAQAAAAAAAAECAwQFBgcICQoL/8QAtREAAgECBAQDBAcFBAQAAQJ3AAECAxEEBSExBhJBUQdhcRMiMoEIFEKRobHBCSMzUvAVYnLRChYkNOEl8RcYGRomJygpKjU2Nzg5OkNERUZHSElKU1RVVldYWVpjZGVmZ2hpanN0dXZ3eHl6goOEhYaHiImKkpOUlZaXmJmaoqOkpaanqKmqsrO0tba3uLm6wsPExcbHyMnK0tPU1dbX2Nna4uPk5ebn6Onq8vP09fb3+Pn6/9oADAMBAAIRAxEAPwCuoG3pSgD0FIOgpa57mouB6ClAA7UmaWi4CjA7Cl4PYU0daX+VMmwuBnp+lLgeg/Kko70XBodgegowPQflSUtFxC4HoPypcD0H5UmaXNAhcD0H5UuB6Cm5pc0AKAPQUuB6D8qbmlzRcQYHpRgegozS07gGBjpQAPQUhpaQC7R6D8qTA9BRRQAuB6D8qMD0FJR3oAXA9BSED0FKaQ9KBCYHoPyo49BRmkzQAHHoKbgDsKd1FMYnoOtFwGtycKAD3OOlKFULjAxTlXaKU9DQMrAcClpBwB9KWpuai9qWkHSigBaWkFHemIUdaXvSUvpQIWikFLQIWijtTtj7PM2Nszjdg4z6ZoATNJmgHmjFMQ7NGaSigBc0oNNpaBDs0UzNKDQA4Glpopc0gFopAaKYBmgniikNAgpCfWg0127AZPagB6MsTqkpHznAb37UrLtOKrSwpcRosucxuHGO+Kssxc5NIBtBHFLQehpjKoHFLQPuilxUGoUZwKWigAFLSUtMQUCilxQJhiloooEGcZr0mKygOlJZSIPIWNVK+vqfrnmvN0GXUerD+densdrFT90NUy01NIa6HnOoWbWF9Lbsd20/K2PvL2NVq6jxXagxw3aD7p2N9DyK5amnfUmSsxaKO1FUQFHQdaKQ0AKTR0NJ2paQDs0fjTc0uaYhaKQUUAOzSfjSGkJwCaLgDNgZ7+lIAep5NCg9W6/yp4pgJjvTqTFLQIKdxSAUuM0AVQMClpB0pag2FooHSlFACClxRilpiEwaWiigQUUd6KBADg59Oa9NZskk9xmvMiMjHc16UWK7VbkhQP0qZ7GlPcTUrEXmjzwgEMyFlH+0OR/KvNvSvV1cFQ3avNNVt/suq3UIGAshx9DyP51dtNDNvUp0tFIaBBmiiikAUUHpTTQA7rRTRxS5piFzRSUmaAHEgAntSDLHJ/AUi/Mcnp2FOFADhS00U+gAqjpdvcwG8Ny5bzLhnjGc4XjFX6UUwDHrS4oFKaAKfKjlSPcigMp6EVpY+UUxokbqgP4Vn1NSjS96staRnoCPoaYbQ/wyH8RmgCGlp5glH90/pTCkg6xn8OaaEKKKbuA65H1FLn0INO4WFooozQI0tBsV1DWIIX/1anzH9wOcficV3suxSzleWP5e9c14StmhS4vnXAcCKMnvzlsfoK3XkLHJ6DtUyaSsVCLbuPSfYW4znkCuO8TDOrmXGPMQH8uK61iAgTAyec+9cx4nX57Z/Zl/kaUW72KlFWuYNJRSMdqk1ZkLRVVLiUsQVQj0zg0/7SqsFkXyyefmIoAmzSGm+amfvdaU8ihgFGaSkzSuIcDxSD5j7fzpo+Y/7P8AOpBTAUdadTRThTEKKUUClA5oAWlApO1V3nlXVILcREwyROzSY+6wIwM+/NMC2BSnpQKU96AJh90UVduNLvLVRvhLfLuynzcVE1ldABjbS7SMg7D0qDQrUUtFAxtGKWigQwgHqKY0MbdVH5VLSUxFc2y9iw+hpv2aQkBGyScAEd6tYrW0G0Ety904ysGCvu56fl1/KgFqdDHEtrbwWqfdhQJ+Pf8AWg5A5/KkJ6+9Nz61i3d3OmKsrCE81h+JcG0t2HGHI/StonJrJ8QKHsEU9pQf0NEdxT+E5aipDB6MRTfJcdGB/CtjmGEA9aY0Ucn3kB+tSbXHVfyNNJx1BH4UAMESKQR27U4mk3DPWkY4FG4C9aaTu4HTvTkZCTExHmFSy/7Q70YAHApAKvApwNIKWmIUdKcKQUopiHdqcKQUooAUU7tSClpgKOlL60UvagDt43MsasME7cMN35EVahLxwhd2cDB9657QpZ2ZRlGh+6CvYYyfriugzxSkrM2cWm4vocnrAH9qT8AdD+gqhVvUZhPqNwwGNrlMH24qrUiYlJTvwpOtAhtHelIoPrTENrqtGMcejIoX5pGLMfxx/IVy3aug0WYPY+XnmNiMex5pS0RUEr6mkTxSHp+FJnnmkJ96xOgCecjrWbrXOnk9xIvP51oE5+tZ+sc6e3++tOO5M/hOepDS0Yrc5RppMcU6kxQBG0anqoqtNAGQ7cg+oq4elMIpAUYlwsZIyyg7WPbPWpcZpEHH0pwoQC0oFAHNOxTAKcKaKcKAHClFJTh0oEKKZcXEVpbyXEz7IoxuZvQVIKZPbRXdu8E6b4pBhlPcUwJcgAHOB1zUX2kM21Acf3jRJtkG0cgHkDvSeWQPQ47UaAdZokiANEEdGHIDDGB+Va006wmMN0dtmfQ44rMiiuba1mu3JlumjzjGcY7e9LDOusWDxuhjlxuAZcY5IH8sGolK7Oqra94mFcrKLmTzv9YTk5NRYq1fhlvGV/vhVByc849arUIyG0UtIaBCUGl7U00xCHpVrTrr7LdAlvkb5W/xrd0jTYYbZJ5UEk7jcAwztB6cetaD29tcAGSCJx/tIKLJhzWZWzSdKkmhEQBQYTpj0pgjYx78gL796ys07HSpJq4wmqOrf8g1v99f61ebANZ+rsP7Px6yL/I0R3JqfCYNIaceaTtWxzDaSnUhoAaeKSlNIeKVgKMsnkwSyBS+wM20dTjPAqRCWRWIxkA49KP42H+0acKEAopaQUtMBwpaQU6gQoFOxSClpgKKZOSIzjqfSpBUc5ITgdTR1Agify25Xr1qaeUInBGSOKYQGXOOarSEs4AGQBijqNGlF4t1FV+eOByoXftlxyRnjI54q1b+Md7uTavwOXAByPzqld6fYR2bhLfczMinapJHI5PtTrLTbdyyJCwKcgofTpn2oVNqerud0aSdKU+xfubj7VO02Nu4DioqkMMoxmN/++aYUYdUYfgalqxyJ3EPammlzRQOwlT2Vsbu7jh6AnLH0A61Aa1NCGLuZh1ERx+YoJZunLSEp91cAY9KezbYzuAyT+ApVXZHjPbqKr3DHgc8881L91XKXvOwkszyKVJGAew60rMBCinsM01Ig8DMD8wpsaFkyeEGeR29qlNmjt9wsuNwZRkYGRQsEdxZXiSqGAiLD2IyQRSmJv4Oeo/CpoABuhzzNE3b6D+tNLW4pSVrHE0GlI2kjuOKStDAbSGlpDigBtIealMMuzf5Umw9G2nFRUAViP3j/Wihv9c34VHbGZoR9oCiTc3A9MnH6YpBYmFOFIOlA6UXAdTh0pop1O4DhSgU0U8UxCilxSCnCi4FOGO5USGbYf3jbNn9zPGfeoLjItpfL4bYcVqCqE6YkdfUUXsOO53F1Fv0yeNFAzGcDHtXMWVy1tP5gBYbCrkegGc4+nP4V18Z4Fc3PYi11ZYtpMUnKnnGOePqP5VO7PRw81yShLqjTjuZZ7eCRG++AxPTjGf8K0lmZ0BznIzzWZ5qpNHD0ypP4DH+NOu7SW6s0jjuJbdwR80Zwcd62rrY8yjuyxOkF2ksW2JpVA6AZU9qyJYElQBkCOOpT5Tx9K0bbTobWKdYXkDTD53ZsknGN2fWs5RdtLOZ4wFTGCARkdM/pWdOaUrM6fQbcoohfyoEaQ8DLEbfcVe0Vo1upQiEYKoSed3GeKqFh0yM/WrOluYlZf7jAjPenUgoe8h2vob0j7UJGM9OaouWOCeQw4PpU7TLIigcZIDGoYgVBkJ4AOB61jN3ehNNcqGK5Q5U1Kh3RsnO37xpsMavv3dhxTEJDcDPHSoWho7O5YhGJN4III5APSpoFZ9Qhb+FUfJH4Y/lUCDy13LgjOKu2SDbvyD6EVrHaxhLe5yUOk3l5OxEZjRiT5j9OT+v0rXi0fTrON1u54ixXkyMAQPYdq1bmO6mzbWiGKMfekHBJ9F/xqtB4SsopVuLiP7TKDkKxyin6fxH602gRzun6Hc6g28furfP+tcdR7DvXTWmkWFhjyoRJKP+Wso3H8B0FaUiMgBYjHT6e1RMCvVcVnKTvoaRgupBOSwBZjjv9Kx77TraZiGUE9nXg1syDK9Kz5qi7NLI5DUNLltHMo+eE8bh2+tUe9dlINwIP8q57UdP+zt5kQ/d9x/d/wDrVcZXMpwtqjPpwpop3atDIUU4U2nUCFHSnCmjpThQA4UtIO1LTEPFVLtf3it6ginvdRR3kNqxPmzKzIAOMLjP86Lwfulb0NAzs7eQSwRv0DKG/MU6YB4yDg9xnsaoeZLJobtaACbyCIwOzAcUywlSWwhlEqu8gG5lOPz98/zpWtc2ZeihRG3Yy+MFiOf/AK1JJMEYDGe5x2FRXdy9tbtLHEZSOoU9B61hHWJpSrp5Y3kHaR2I4ojZu8hqlOUf3Z0wIIyDkHpiqUeqpLqJs/s8wX5tspHyMR1FQ2d+rsVPy45K56e49quLCQyHHKH73qPahx5WKzTs1qU7rTXyz2zgeikcj/Ee1LYLOsJNxF5T5xtzn8R7VoE4Uk9AKqRXKXO8IGBTBOR1HTIqZ1G48rLjuWoidjjAK5GfanSE7FGMDaOppInC20ue5xTXDGKN+uQRWfQb3JLnKsmD/DjimxMATkc9R+FRKNzAE45xUgA8xwudo5z3xR1CySsWogrc88nJB4rRiG10jA4INZ1mwdiHwEAAGa0Yo8MJCwOD1rVPsYuOupcRwrhalYsOgzVcSBjjB+vepDIeCBkd6fNclxsMkJIJ6Y7VAGAypPPA571JMwXgc5H5VGYz5ZbcCSM4qG9TSKSRGFDvwOAcH3qC6tlwdi8jkGpEYJICc4pl3IWyqHOfSkmrajknzaGTIBgHIznBHpVWVN25MBvX6VZkXJJHGKh2uZfl4aszQ5q8tvs0uB9xvun+lQVu30HmQujZDKMj6isEVtF3RzzjZ6DxS00elOFUSOFOFMp1MQ6lpop1ACNFG0qSsgMiAhWI5APX+VMuxm2b25qUUkq7oXX1FNAdLpls9raBJG3MQCfQHFS3iItnOyouQhbAGMkc/wBKpw6vG2oyWbYUocFs+uMfmasXdwuTApG7+MEZ4Pap+Jm7OZs9c1K5Vy8UXlk8EE8e1UtUnngcz/Z0dHbJAY5VvUGuzCQxIoKIF6ABax9cXeTCbYJERxIAMsfb0olOydhKcqb5omFb6lcef+6jUsuGQs3B9s+lb8XiCWG0zcWhBQdIzu4/rWRZ2Uc7IkcDAu69AcYBHf27+ldWdJtCD+7OPrSUm1Zg6sqsuaW5zb+N7C4Z7UJMrMMZCkEZ9DVvRdVtZdUhsFLKGjKqhB6D3/Cuf1nw9BZ37uizRRnlGVshx6H6GsQXt1aarBcoXPkDO7H3uc4zVqEHqdjwzmlKm9D16eFF27RtB4z79qnZQkHQEKMjPrVSO6ju4RJH88TxLInP41HvZjjJwxzisW0mcii3o+hIU/cxv6tyPWkYYwAQN3JAphlJRU7Kcg003SrdRQsC0kzbVX9SfpU6Fq5fiUIijqa07dsKA2dvpVCJA0nTitIR7VB55HHtQr9Bu3UcOF3Y46U4OSV3nj1peDEckDH60xlLcg4HSqtYz3B8NuweBwDVfODU4yEHYDjNQ5wpUdDSZURh6VC2CDnP4VITUtvGCSxAIFJK7HJ8quZFwvkg7uBjdk9q5u81mZ7sSWzlUVQOR949zXTeJZfs2nPIcEt8ij3NeftE5uo5RIQioylOxJI5/DH61oo2MZS5kbU2tTTQFHij3EY3is2mg5FOFMgUU4dKaDS0wHU6m06nYQop1MFPzTAUU7sfpVW9Nx9huPsuPtHlt5ef72OKniLiFPMxv2Ddj1xzRYDq1iguI0cqrggENjqOD+XFYWoC4j1rJYgOR0PDrg/y4/KtjSkePTYVcFWxnB7ZPSotVtfNWKdUBaInJz/CQc1J1UZpXv1Kk0M8l5mORlfblSGxtHt2pl/bXJtHN1cs6jGEA4PPfGK0okAO/ueKLmJJ0ETngkHGeuDUMze1jn7US29yJzlWQrlfVSTj+ePxrrM/LWSlk0sl00mV84hUXPRQeP8A9VN1K+yjIjARjhiD19qSTW5EI2Itat0vbV43Ge6+x7Vx40G4ZwZJyF7/ACgE11NvOZYAj4Dx8MAfyodQATnAx1rRPl0NoVZw0ixNGnXT7RLMthEBCMfQ9q0hfWluRJNcIiJyWzn+Vcyv7icPNv8AJYkZz933qLUJpYy8Z8p4ZAChxjjPqKzla9yJTsjqbnU7eaTZb5aQAHJXAwe9ZD6gNO1KDUJUaaNCykA88jkj6VU0jfPOACM+WI1IHcdP61N4gtSLdIAdpCev8WcGtIcrTkFD95OMOh1HhfVX1rSP7QeIRCSaRUTOSFU4Gfet95NxUrkYGK53wckcPhW1jiHyrJKPx3nNbwPHtWMtG0joqRXM7dB2SetPR9rBjyBTMEZx9aOoAGAR1pK5DWg+QN68HnFR4B54HsKevytgnHHWiOMynA7d6p6slOyKtpdW1880cEgNxbvtnhPDIfp6Ed60QirkgYzXGeK9OksdVtNYtpJIZ2Xy2eM45HT8x/KoJ/G+oRW7ottAZFi3ecQcA9BxWkUlqYzbZP40uw88Vop/1Q3t9T0/T+dcx3p0kss8byzyGSV/nZm6nPNM5o3ElYcOtLTad2pgxR1pwpopR1pCHinUwU4VQCinCm0tFxDu9OPQ03PIpexoA6jT5TPZRSMctjBPuKfeHbZzE9NjdPpVSJxp2npGcFznA/GqguZGM8cpLGSIgk9A3YUJGqvbUuwMPLABzt44Oaz21CNtVubSUBJF2hA3VwRkFaFlmR4kD5JIydowo9T/ACrTZIzIrlF3gcNjkUnFxeolJS2ILq4aFQqKzSMOwzj3+tZE0SqpiZi7RNg8Yww6jH1qzqWRexHzRGu07m3YIHPft/8AWrKjjjsVkjV2aMjzF3NuPvz3q6em5pGN0RRXEVpdNIWxuwH5J47Vsq8cgyjqw9jmuZuPMhVklEcjgb2lQ8gEnAP50y3jcXzb3eMwvtYx/gRg9zg/rWEa6q6r+vM19jHlu3qdQYkZdhUFfTFc3qEcIuGSNWManaRnjPc/pit6dj9pt0R8EOSVB5IxgfhT49Nknuo0SAR2iN5jsMfMR6d6l+9dLock02hvhnTn3R3rkCJVIRSctnGOe3A796seILVrm8tUUHDBvMIHOBzke/NSCU2mgEKVE9zlYVPctwPw71ejha3s0heVppEXmRjkse/XtWkXbUum3BXW5Y8NFJNMaKMACK4kTHQdj/WtcD+Vct4Hu2um1W3ZCjJMswDDHDDBH5r+tdSfvenNTU+K5pD4bMf8zZPJqSABpMFe1AgcZIYYxnNMTIbKnBpLR6g/eTSLE4BA+XJFRwL1IbkdqbvdgTntyfaljbD8clhwau65rmdmo2M3xbCJNGdyc+W6so9Ocf1rgBsuU8th8pPY9cetd54quEg0IrIcPPIiAepzk/yrz3TbKSz3K0++IMTGpXkZPc9/SqZMdh8gGZgPQfyqtPE06xhZCm2RXOO4Bzj8aWCTzXuDnJzgn1PNOT7oz6Cp2EkSClpop2aaBiinCminD0oAcKcKbkdKWmIdSimilouA6gMrFgGBKnBAPQ0lV7WyS1uLyZWYm5kEjA9iFA4/KmgNqRpJ5nlyvlv8qENngY5+nNReVIkYWKQlgSSCB8xJyf61XeW7/tNHmMQttuyJI127B159ev6VK1wEudrK4jRd5kUcbgeAf5fjWspxhDmZ0cjSLCJDsEuN5XO1zyR2wDWqPmRT6gVkWMbpZRpM+52O4nAHJOcVeluDbWLziJ5fLzlV64z1/CnWXupnJRdpNDrqyjvIijDnBGcdvQ1z0llmzEMKmJ4QUUdQPbnt/hWxp9xf3d2k0tu1tZtGdsb43ZyME/hniq891HJeNEQY5+S0ZHTBIzn8OfzrOm1szpTcXdGClpLDZiG4YSII2SXYm1pB1FRQNu2lcoZXaRQevB449uK33iz2qv8AZUM251UsDlD3H/66UcLTpz54jcm9GalgiXZD7QGHB9a2VRVTbgEd6oaTHtidx0Jx0+lWZWMV3A2fkfMZ9ielRJJSsiCSWCKYIJEDBHDr7MOhrN/s+4j1CW4W5HluwITB4HcGrwut3IjJHswqnBqyS3M8MyeUVciMkcOuMj6GqdN7ijJT0j0IdHZLTxRIiqqi6BVsDGWxkH9K6/H5VwV9N5OpJcQsGeNlcYPpXeLMlxCk8RBilUOhHoaia6lwkO3EAcnA6UnUdumacFypY9AcU1j82OM1mUGTtIH409JApJK/MentTUbDAbcg9vWuR8V+KDp8j2OnOPtSj95Jx+7J7D3p7K/YTtsU/Fd5Jd63Gm5THZgoPdj94/0qogrHsXmuLYvcKUdnycvuz0Oc1pPeQWlustxIsadMn1rpqJcqaOaD95xIPs7wzSEnKscg1Gn3RViO6+1wGQRsgEhUbupHY/jVOSNpbaWNH2OysoYfwk5GayNCcUtMjBSNVJ3FVAJ9afQJjhS0lKKAHClPtSUopiHCiiloAMmlzSUUIDrW0LTZkAZ7jsfvDtQdAszBJD9suBG7b2GB1q6rLtHzL09aXcvqPzrWUFLcj2s7WuUjoVv+7C3rgIwONg5x2qyukweVs+1ZB65TrUu4eo/Ol3L6j86cve0ZEdNUMXTEH/L2v4rUY0K3a5E5nj3kEHOeQRjmrG5fUfnQCM/eH51PJEtTZmSeGpnP7q9gVQeN2enpTG8MXL4BntjjkMH71rhl9R+dLuB7j860uw9pIz/+EenRwYpUVdwbb5nT6f8A16ttp07qVZEYdxuFTbl/vD86N6/3h+dYuAe0l1MOfR9UjQJbDCk4OSMqPUGsjU9J1uW5Uppkp/dEFlZSGO7jHpxXabx2cfnS+Z1+f/x6tXJtWClVdOfMkeZ3uj+JphC32KYNGgU4QFmx3J/z0qzpM3i6wj8prK5jXOcBNyn3weleieZj/lp/49QZT/z0/wDHqh3e5o66tZRMe18Qypp8kl/pd8LmIgbYYCwlHqKjvPFH2W2eRND1OWUAbY1QHP454rc85/8Anr+tHntj/W8/Wp5ET7V9jzPV/EPii8nDbbm3gYZWK3iK7PZu+awoYb5Z8m3nOeu5GY9c969pFw3/AD0H50ee398fmKJQUlZ7GyxdocrijzIRSxwwpHE5O4A/Kencmry2yvCElXcMhsEdwc13vnH1T9KPO/65/iBVS1SXQ5Yvl1OAvMqEx0J59uKzg2GIz3NenGRCOUhP/ARTCID1hgP/AABajkK9qebbh3p24da9FKW3e2tv++FphhtP+fS2/wC+BS5B+0PPgwp24V3pgsjz9jtf++BTTa2B/wCXG2/75FPlD2hwwIzS7h2rtjaWB/5cbb/vmmmy0/8A58rf8v8A69HIL2hxuRS55rrzZad/z5QUhsdN/wCfOH8//r0+Vj9ojks0xpVVwpzk11xsdOz/AMecQ/E/40xtO0w8mzjJA67j/jQohzo//9k=;" vertex="1" parent="1">
          <mxGeometry x="50" y="310" width="35" height="35" as="geometry" />
        </mxCell>
        <mxCell id="1lqiZdlfGEn-UdCL97i5-60" value="r3" style="text;html=1;resizable=0;autosize=1;align=center;verticalAlign=middle;points=[];fillColor=none;strokeColor=none;rounded=0;" vertex="1" parent="1">
          <mxGeometry x="20" y="349" width="30" height="20" as="geometry" />
        </mxCell>
        <mxCell id="1lqiZdlfGEn-UdCL97i5-61" value="r4" style="text;html=1;resizable=0;autosize=1;align=center;verticalAlign=middle;points=[];fillColor=none;strokeColor=none;rounded=0;" vertex="1" parent="1">
          <mxGeometry x="20" y="390" width="30" height="20" as="geometry" />
        </mxCell>
        <mxCell id="1lqiZdlfGEn-UdCL97i5-62" value="r5" style="text;html=1;resizable=0;autosize=1;align=center;verticalAlign=middle;points=[];fillColor=none;strokeColor=none;rounded=0;" vertex="1" parent="1">
          <mxGeometry x="20" y="430" width="30" height="20" as="geometry" />
        </mxCell>
        <object label="&lt;p style=&quot;line-height: 60%&quot;&gt;&lt;span&gt;PR&lt;/span&gt;&lt;span&gt;elu&lt;/span&gt;&lt;/p&gt;" id="1lqiZdlfGEn-UdCL97i5-63">
          <mxCell style="rounded=0;whiteSpace=wrap;html=1;strokeColor=#000000;fillColor=none;writing-mode=tb-rl;rotation=90;" vertex="1" parent="1">
            <mxGeometry x="412" y="366" width="44" height="12" as="geometry" />
          </mxCell>
        </object>
        <object label="&lt;p style=&quot;line-height: 60%&quot;&gt;&lt;span&gt;BN&lt;/span&gt;&lt;br&gt;&lt;/p&gt;" id="1lqiZdlfGEn-UdCL97i5-65">
          <mxCell style="rounded=0;whiteSpace=wrap;html=1;strokeColor=#000000;fillColor=none;writing-mode=tb-rl;rotation=90;" vertex="1" parent="1">
            <mxGeometry x="400" y="366" width="44" height="12" as="geometry" />
          </mxCell>
        </object>
        <mxCell id="1lqiZdlfGEn-UdCL97i5-66" value="" style="edgeStyle=orthogonalEdgeStyle;rounded=0;orthogonalLoop=1;jettySize=auto;html=1;strokeColor=#000000;strokeWidth=1;" edge="1" parent="1" target="1lqiZdlfGEn-UdCL97i5-69">
          <mxGeometry relative="1" as="geometry">
            <mxPoint x="194.5" y="523.9999999999999" as="sourcePoint" />
          </mxGeometry>
        </mxCell>
        <mxCell id="1lqiZdlfGEn-UdCL97i5-68" value="" style="edgeStyle=orthogonalEdgeStyle;rounded=0;orthogonalLoop=1;jettySize=auto;html=1;strokeColor=#000000;strokeWidth=1;" edge="1" parent="1" source="1lqiZdlfGEn-UdCL97i5-69" target="1lqiZdlfGEn-UdCL97i5-71">
          <mxGeometry relative="1" as="geometry" />
        </mxCell>
        <mxCell id="1lqiZdlfGEn-UdCL97i5-69" value="conv2" style="rounded=1;whiteSpace=wrap;html=1;strokeColor=#000000;fillColor=none;" vertex="1" parent="1">
          <mxGeometry x="217.5" y="509" width="40" height="30" as="geometry" />
        </mxCell>
        <mxCell id="1lqiZdlfGEn-UdCL97i5-70" value="" style="edgeStyle=orthogonalEdgeStyle;rounded=0;orthogonalLoop=1;jettySize=auto;html=1;strokeColor=#000000;strokeWidth=1;" edge="1" parent="1" source="1lqiZdlfGEn-UdCL97i5-71" target="1lqiZdlfGEn-UdCL97i5-73">
          <mxGeometry relative="1" as="geometry" />
        </mxCell>
        <mxCell id="1lqiZdlfGEn-UdCL97i5-71" value="conv3" style="rounded=1;whiteSpace=wrap;html=1;strokeColor=#000000;fillColor=none;" vertex="1" parent="1">
          <mxGeometry x="283.5" y="509" width="40" height="30" as="geometry" />
        </mxCell>
        <mxCell id="1lqiZdlfGEn-UdCL97i5-72" style="edgeStyle=orthogonalEdgeStyle;rounded=0;orthogonalLoop=1;jettySize=auto;html=1;exitX=1;exitY=0.5;exitDx=0;exitDy=0;entryX=0.5;entryY=0;entryDx=0;entryDy=0;strokeColor=#000000;strokeWidth=1;" edge="1" parent="1" source="1lqiZdlfGEn-UdCL97i5-73" target="1lqiZdlfGEn-UdCL97i5-86">
          <mxGeometry relative="1" as="geometry" />
        </mxCell>
        <mxCell id="1lqiZdlfGEn-UdCL97i5-73" value="conv4" style="rounded=1;whiteSpace=wrap;html=1;strokeColor=#000000;fillColor=none;" vertex="1" parent="1">
          <mxGeometry x="345.5" y="509" width="40" height="30" as="geometry" />
        </mxCell>
        <mxCell id="1lqiZdlfGEn-UdCL97i5-74" value="" style="endArrow=classic;html=1;strokeColor=#000000;strokeWidth=1;entryX=0;entryY=0.5;entryDx=0;entryDy=0;" edge="1" parent="1">
          <mxGeometry width="50" height="50" relative="1" as="geometry">
            <mxPoint x="129.5" y="524" as="sourcePoint" />
            <mxPoint x="154.5" y="524" as="targetPoint" />
          </mxGeometry>
        </mxCell>
        <mxCell id="1lqiZdlfGEn-UdCL97i5-75" style="edgeStyle=orthogonalEdgeStyle;rounded=0;orthogonalLoop=1;jettySize=auto;html=1;exitX=1;exitY=0.5;exitDx=0;exitDy=0;strokeColor=#000000;strokeWidth=1;entryX=0;entryY=0.5;entryDx=0;entryDy=0;" edge="1" parent="1" source="1lqiZdlfGEn-UdCL97i5-76" target="1lqiZdlfGEn-UdCL97i5-81">
          <mxGeometry relative="1" as="geometry">
            <mxPoint x="159.5" y="603" as="targetPoint" />
          </mxGeometry>
        </mxCell>
        <mxCell id="1lqiZdlfGEn-UdCL97i5-76" value="+" style="ellipse;whiteSpace=wrap;html=1;aspect=fixed;strokeColor=#000000;fillColor=none;" vertex="1" parent="1">
          <mxGeometry x="129.5" y="595.5" width="15" height="15" as="geometry" />
        </mxCell>
        <mxCell id="1lqiZdlfGEn-UdCL97i5-77" style="edgeStyle=orthogonalEdgeStyle;rounded=0;orthogonalLoop=1;jettySize=auto;html=1;exitX=0;exitY=0;exitDx=20;exitDy=25;exitPerimeter=0;entryX=0.5;entryY=0;entryDx=0;entryDy=0;strokeColor=#000000;strokeWidth=1;" edge="1" parent="1" target="1lqiZdlfGEn-UdCL97i5-76">
          <mxGeometry relative="1" as="geometry">
            <mxPoint x="109.5" y="564" as="sourcePoint" />
          </mxGeometry>
        </mxCell>
        <mxCell id="1lqiZdlfGEn-UdCL97i5-78" style="edgeStyle=orthogonalEdgeStyle;rounded=0;orthogonalLoop=1;jettySize=auto;html=1;exitX=0;exitY=0;exitDx=20;exitDy=25;exitPerimeter=0;strokeColor=#000000;strokeWidth=1;" edge="1" parent="1">
          <mxGeometry relative="1" as="geometry">
            <mxPoint x="129.5" y="604.1428571428571" as="targetPoint" />
            <mxPoint x="109.5" y="604" as="sourcePoint" />
          </mxGeometry>
        </mxCell>
        <mxCell id="1lqiZdlfGEn-UdCL97i5-79" style="edgeStyle=orthogonalEdgeStyle;rounded=0;orthogonalLoop=1;jettySize=auto;html=1;exitX=0;exitY=0;exitDx=20;exitDy=25;exitPerimeter=0;entryX=0.5;entryY=1;entryDx=0;entryDy=0;strokeColor=#000000;strokeWidth=1;" edge="1" parent="1" target="1lqiZdlfGEn-UdCL97i5-76">
          <mxGeometry relative="1" as="geometry">
            <mxPoint x="109.5" y="644" as="sourcePoint" />
          </mxGeometry>
        </mxCell>
        <mxCell id="1lqiZdlfGEn-UdCL97i5-80" value="" style="edgeStyle=orthogonalEdgeStyle;rounded=0;orthogonalLoop=1;jettySize=auto;html=1;strokeColor=#000000;strokeWidth=1;" edge="1" parent="1" source="1lqiZdlfGEn-UdCL97i5-81" target="1lqiZdlfGEn-UdCL97i5-83">
          <mxGeometry relative="1" as="geometry" />
        </mxCell>
        <mxCell id="1lqiZdlfGEn-UdCL97i5-81" value="conv1" style="rounded=1;whiteSpace=wrap;html=1;strokeColor=#000000;fillColor=none;" vertex="1" parent="1">
          <mxGeometry x="179.5" y="588" width="40" height="30" as="geometry" />
        </mxCell>
        <mxCell id="1lqiZdlfGEn-UdCL97i5-82" value="" style="edgeStyle=orthogonalEdgeStyle;rounded=0;orthogonalLoop=1;jettySize=auto;html=1;strokeColor=#000000;strokeWidth=1;" edge="1" parent="1" source="1lqiZdlfGEn-UdCL97i5-83" target="1lqiZdlfGEn-UdCL97i5-85">
          <mxGeometry relative="1" as="geometry" />
        </mxCell>
        <mxCell id="1lqiZdlfGEn-UdCL97i5-83" value="conv2" style="rounded=1;whiteSpace=wrap;html=1;strokeColor=#000000;fillColor=none;" vertex="1" parent="1">
          <mxGeometry x="261.5" y="588" width="40" height="30" as="geometry" />
        </mxCell>
        <mxCell id="1lqiZdlfGEn-UdCL97i5-84" style="edgeStyle=orthogonalEdgeStyle;rounded=0;orthogonalLoop=1;jettySize=auto;html=1;exitX=1;exitY=0.5;exitDx=0;exitDy=0;entryX=0.5;entryY=1;entryDx=0;entryDy=0;strokeColor=#000000;strokeWidth=1;" edge="1" parent="1" source="1lqiZdlfGEn-UdCL97i5-85" target="1lqiZdlfGEn-UdCL97i5-86">
          <mxGeometry relative="1" as="geometry" />
        </mxCell>
        <mxCell id="1lqiZdlfGEn-UdCL97i5-85" value="conv3" style="rounded=1;whiteSpace=wrap;html=1;strokeColor=#000000;fillColor=none;" vertex="1" parent="1">
          <mxGeometry x="346.5" y="588" width="40" height="30" as="geometry" />
        </mxCell>
        <mxCell id="1lqiZdlfGEn-UdCL97i5-86" value="C" style="ellipse;whiteSpace=wrap;html=1;aspect=fixed;strokeColor=#000000;fillColor=none;" vertex="1" parent="1">
          <mxGeometry x="409.5" y="556.5" width="15" height="15" as="geometry" />
        </mxCell>
        <mxCell id="1lqiZdlfGEn-UdCL97i5-87" value="" style="shape=cube;whiteSpace=wrap;html=1;boundedLbl=1;backgroundOutline=1;darkOpacity=0.05;darkOpacity2=0.1;strokeColor=#000000;fillColor=none;size=10;" vertex="1" parent="1">
          <mxGeometry x="89.5" y="543" width="20" height="40" as="geometry" />
        </mxCell>
        <mxCell id="1lqiZdlfGEn-UdCL97i5-88" value="" style="shape=cube;whiteSpace=wrap;html=1;boundedLbl=1;backgroundOutline=1;darkOpacity=0.05;darkOpacity2=0.1;strokeColor=#000000;fillColor=none;size=10;" vertex="1" parent="1">
          <mxGeometry x="89.5" y="584" width="20" height="40" as="geometry" />
        </mxCell>
        <mxCell id="1lqiZdlfGEn-UdCL97i5-89" value="" style="shape=cube;whiteSpace=wrap;html=1;boundedLbl=1;backgroundOutline=1;darkOpacity=0.05;darkOpacity2=0.1;strokeColor=#000000;fillColor=none;size=10;" vertex="1" parent="1">
          <mxGeometry x="89.5" y="624" width="20" height="40" as="geometry" />
        </mxCell>
        <mxCell id="1lqiZdlfGEn-UdCL97i5-90" value="" style="shape=image;verticalLabelPosition=bottom;labelBackgroundColor=#ffffff;verticalAlign=top;aspect=fixed;imageAspect=0;image=data:image/jpeg,/9j/4AAQSkZJRgABAQAAAQABAAD/2wBDAAgGBgcGBQgHBwcJCQgKDBQNDAsLDBkSEw8UHRofHh0aHBwgJC4nICIsIxwcKDcpLDAxNDQ0Hyc5PTgyPC4zNDL/2wBDAQkJCQwLDBgNDRgyIRwhMjIyMjIyMjIyMjIyMjIyMjIyMjIyMjIyMjIyMjIyMjIyMjIyMjIyMjIyMjIyMjIyMjL/wAARCAEAAQADASIAAhEBAxEB/8QAHwAAAQUBAQEBAQEAAAAAAAAAAAECAwQFBgcICQoL/8QAtRAAAgEDAwIEAwUFBAQAAAF9AQIDAAQRBRIhMUEGE1FhByJxFDKBkaEII0KxwRVS0fAkM2JyggkKFhcYGRolJicoKSo0NTY3ODk6Q0RFRkdISUpTVFVWV1hZWmNkZWZnaGlqc3R1dnd4eXqDhIWGh4iJipKTlJWWl5iZmqKjpKWmp6ipqrKztLW2t7i5usLDxMXGx8jJytLT1NXW19jZ2uHi4+Tl5ufo6erx8vP09fb3+Pn6/8QAHwEAAwEBAQEBAQEBAQAAAAAAAAECAwQFBgcICQoL/8QAtREAAgECBAQDBAcFBAQAAQJ3AAECAxEEBSExBhJBUQdhcRMiMoEIFEKRobHBCSMzUvAVYnLRChYkNOEl8RcYGRomJygpKjU2Nzg5OkNERUZHSElKU1RVVldYWVpjZGVmZ2hpanN0dXZ3eHl6goOEhYaHiImKkpOUlZaXmJmaoqOkpaanqKmqsrO0tba3uLm6wsPExcbHyMnK0tPU1dbX2Nna4uPk5ebn6Onq8vP09fb3+Pn6/9oADAMBAAIRAxEAPwCuoG3pSgD0FIOgpa57mouB6ClAA7UmaWi4CjA7Cl4PYU0daX+VMmwuBnp+lLgeg/Kko70XBodgegowPQflSUtFxC4HoPypcD0H5UmaXNAhcD0H5UuB6Cm5pc0AKAPQUuB6D8qbmlzRcQYHpRgegozS07gGBjpQAPQUhpaQC7R6D8qTA9BRRQAuB6D8qMD0FJR3oAXA9BSED0FKaQ9KBCYHoPyo49BRmkzQAHHoKbgDsKd1FMYnoOtFwGtycKAD3OOlKFULjAxTlXaKU9DQMrAcClpBwB9KWpuai9qWkHSigBaWkFHemIUdaXvSUvpQIWikFLQIWijtTtj7PM2Nszjdg4z6ZoATNJmgHmjFMQ7NGaSigBc0oNNpaBDs0UzNKDQA4Glpopc0gFopAaKYBmgniikNAgpCfWg0127AZPagB6MsTqkpHznAb37UrLtOKrSwpcRosucxuHGO+Kssxc5NIBtBHFLQehpjKoHFLQPuilxUGoUZwKWigAFLSUtMQUCilxQJhiloooEGcZr0mKygOlJZSIPIWNVK+vqfrnmvN0GXUerD+densdrFT90NUy01NIa6HnOoWbWF9Lbsd20/K2PvL2NVq6jxXagxw3aD7p2N9DyK5amnfUmSsxaKO1FUQFHQdaKQ0AKTR0NJ2paQDs0fjTc0uaYhaKQUUAOzSfjSGkJwCaLgDNgZ7+lIAep5NCg9W6/yp4pgJjvTqTFLQIKdxSAUuM0AVQMClpB0pag2FooHSlFACClxRilpiEwaWiigQUUd6KBADg59Oa9NZskk9xmvMiMjHc16UWK7VbkhQP0qZ7GlPcTUrEXmjzwgEMyFlH+0OR/KvNvSvV1cFQ3avNNVt/suq3UIGAshx9DyP51dtNDNvUp0tFIaBBmiiikAUUHpTTQA7rRTRxS5piFzRSUmaAHEgAntSDLHJ/AUi/Mcnp2FOFADhS00U+gAqjpdvcwG8Ny5bzLhnjGc4XjFX6UUwDHrS4oFKaAKfKjlSPcigMp6EVpY+UUxokbqgP4Vn1NSjS96staRnoCPoaYbQ/wyH8RmgCGlp5glH90/pTCkg6xn8OaaEKKKbuA65H1FLn0INO4WFooozQI0tBsV1DWIIX/1anzH9wOcficV3suxSzleWP5e9c14StmhS4vnXAcCKMnvzlsfoK3XkLHJ6DtUyaSsVCLbuPSfYW4znkCuO8TDOrmXGPMQH8uK61iAgTAyec+9cx4nX57Z/Zl/kaUW72KlFWuYNJRSMdqk1ZkLRVVLiUsQVQj0zg0/7SqsFkXyyefmIoAmzSGm+amfvdaU8ihgFGaSkzSuIcDxSD5j7fzpo+Y/7P8AOpBTAUdadTRThTEKKUUClA5oAWlApO1V3nlXVILcREwyROzSY+6wIwM+/NMC2BSnpQKU96AJh90UVduNLvLVRvhLfLuynzcVE1ldABjbS7SMg7D0qDQrUUtFAxtGKWigQwgHqKY0MbdVH5VLSUxFc2y9iw+hpv2aQkBGyScAEd6tYrW0G0Ety904ysGCvu56fl1/KgFqdDHEtrbwWqfdhQJ+Pf8AWg5A5/KkJ6+9Nz61i3d3OmKsrCE81h+JcG0t2HGHI/StonJrJ8QKHsEU9pQf0NEdxT+E5aipDB6MRTfJcdGB/CtjmGEA9aY0Ucn3kB+tSbXHVfyNNJx1BH4UAMESKQR27U4mk3DPWkY4FG4C9aaTu4HTvTkZCTExHmFSy/7Q70YAHApAKvApwNIKWmIUdKcKQUopiHdqcKQUooAUU7tSClpgKOlL60UvagDt43MsasME7cMN35EVahLxwhd2cDB9657QpZ2ZRlGh+6CvYYyfriugzxSkrM2cWm4vocnrAH9qT8AdD+gqhVvUZhPqNwwGNrlMH24qrUiYlJTvwpOtAhtHelIoPrTENrqtGMcejIoX5pGLMfxx/IVy3aug0WYPY+XnmNiMex5pS0RUEr6mkTxSHp+FJnnmkJ96xOgCecjrWbrXOnk9xIvP51oE5+tZ+sc6e3++tOO5M/hOepDS0Yrc5RppMcU6kxQBG0anqoqtNAGQ7cg+oq4elMIpAUYlwsZIyyg7WPbPWpcZpEHH0pwoQC0oFAHNOxTAKcKaKcKAHClFJTh0oEKKZcXEVpbyXEz7IoxuZvQVIKZPbRXdu8E6b4pBhlPcUwJcgAHOB1zUX2kM21Acf3jRJtkG0cgHkDvSeWQPQ47UaAdZokiANEEdGHIDDGB+Va006wmMN0dtmfQ44rMiiuba1mu3JlumjzjGcY7e9LDOusWDxuhjlxuAZcY5IH8sGolK7Oqra94mFcrKLmTzv9YTk5NRYq1fhlvGV/vhVByc849arUIyG0UtIaBCUGl7U00xCHpVrTrr7LdAlvkb5W/xrd0jTYYbZJ5UEk7jcAwztB6cetaD29tcAGSCJx/tIKLJhzWZWzSdKkmhEQBQYTpj0pgjYx78gL796ys07HSpJq4wmqOrf8g1v99f61ebANZ+rsP7Px6yL/I0R3JqfCYNIaceaTtWxzDaSnUhoAaeKSlNIeKVgKMsnkwSyBS+wM20dTjPAqRCWRWIxkA49KP42H+0acKEAopaQUtMBwpaQU6gQoFOxSClpgKKZOSIzjqfSpBUc5ITgdTR1Agify25Xr1qaeUInBGSOKYQGXOOarSEs4AGQBijqNGlF4t1FV+eOByoXftlxyRnjI54q1b+Md7uTavwOXAByPzqld6fYR2bhLfczMinapJHI5PtTrLTbdyyJCwKcgofTpn2oVNqerud0aSdKU+xfubj7VO02Nu4DioqkMMoxmN/++aYUYdUYfgalqxyJ3EPammlzRQOwlT2Vsbu7jh6AnLH0A61Aa1NCGLuZh1ERx+YoJZunLSEp91cAY9KezbYzuAyT+ApVXZHjPbqKr3DHgc8881L91XKXvOwkszyKVJGAew60rMBCinsM01Ig8DMD8wpsaFkyeEGeR29qlNmjt9wsuNwZRkYGRQsEdxZXiSqGAiLD2IyQRSmJv4Oeo/CpoABuhzzNE3b6D+tNLW4pSVrHE0GlI2kjuOKStDAbSGlpDigBtIealMMuzf5Umw9G2nFRUAViP3j/Wihv9c34VHbGZoR9oCiTc3A9MnH6YpBYmFOFIOlA6UXAdTh0pop1O4DhSgU0U8UxCilxSCnCi4FOGO5USGbYf3jbNn9zPGfeoLjItpfL4bYcVqCqE6YkdfUUXsOO53F1Fv0yeNFAzGcDHtXMWVy1tP5gBYbCrkegGc4+nP4V18Z4Fc3PYi11ZYtpMUnKnnGOePqP5VO7PRw81yShLqjTjuZZ7eCRG++AxPTjGf8K0lmZ0BznIzzWZ5qpNHD0ypP4DH+NOu7SW6s0jjuJbdwR80Zwcd62rrY8yjuyxOkF2ksW2JpVA6AZU9qyJYElQBkCOOpT5Tx9K0bbTobWKdYXkDTD53ZsknGN2fWs5RdtLOZ4wFTGCARkdM/pWdOaUrM6fQbcoohfyoEaQ8DLEbfcVe0Vo1upQiEYKoSed3GeKqFh0yM/WrOluYlZf7jAjPenUgoe8h2vob0j7UJGM9OaouWOCeQw4PpU7TLIigcZIDGoYgVBkJ4AOB61jN3ehNNcqGK5Q5U1Kh3RsnO37xpsMavv3dhxTEJDcDPHSoWho7O5YhGJN4III5APSpoFZ9Qhb+FUfJH4Y/lUCDy13LgjOKu2SDbvyD6EVrHaxhLe5yUOk3l5OxEZjRiT5j9OT+v0rXi0fTrON1u54ixXkyMAQPYdq1bmO6mzbWiGKMfekHBJ9F/xqtB4SsopVuLiP7TKDkKxyin6fxH602gRzun6Hc6g28furfP+tcdR7DvXTWmkWFhjyoRJKP+Wso3H8B0FaUiMgBYjHT6e1RMCvVcVnKTvoaRgupBOSwBZjjv9Kx77TraZiGUE9nXg1syDK9Kz5qi7NLI5DUNLltHMo+eE8bh2+tUe9dlINwIP8q57UdP+zt5kQ/d9x/d/wDrVcZXMpwtqjPpwpop3atDIUU4U2nUCFHSnCmjpThQA4UtIO1LTEPFVLtf3it6ginvdRR3kNqxPmzKzIAOMLjP86Lwfulb0NAzs7eQSwRv0DKG/MU6YB4yDg9xnsaoeZLJobtaACbyCIwOzAcUywlSWwhlEqu8gG5lOPz98/zpWtc2ZeihRG3Yy+MFiOf/AK1JJMEYDGe5x2FRXdy9tbtLHEZSOoU9B61hHWJpSrp5Y3kHaR2I4ojZu8hqlOUf3Z0wIIyDkHpiqUeqpLqJs/s8wX5tspHyMR1FQ2d+rsVPy45K56e49quLCQyHHKH73qPahx5WKzTs1qU7rTXyz2zgeikcj/Ee1LYLOsJNxF5T5xtzn8R7VoE4Uk9AKqRXKXO8IGBTBOR1HTIqZ1G48rLjuWoidjjAK5GfanSE7FGMDaOppInC20ue5xTXDGKN+uQRWfQb3JLnKsmD/DjimxMATkc9R+FRKNzAE45xUgA8xwudo5z3xR1CySsWogrc88nJB4rRiG10jA4INZ1mwdiHwEAAGa0Yo8MJCwOD1rVPsYuOupcRwrhalYsOgzVcSBjjB+vepDIeCBkd6fNclxsMkJIJ6Y7VAGAypPPA571JMwXgc5H5VGYz5ZbcCSM4qG9TSKSRGFDvwOAcH3qC6tlwdi8jkGpEYJICc4pl3IWyqHOfSkmrajknzaGTIBgHIznBHpVWVN25MBvX6VZkXJJHGKh2uZfl4aszQ5q8tvs0uB9xvun+lQVu30HmQujZDKMj6isEVtF3RzzjZ6DxS00elOFUSOFOFMp1MQ6lpop1ACNFG0qSsgMiAhWI5APX+VMuxm2b25qUUkq7oXX1FNAdLpls9raBJG3MQCfQHFS3iItnOyouQhbAGMkc/wBKpw6vG2oyWbYUocFs+uMfmasXdwuTApG7+MEZ4Pap+Jm7OZs9c1K5Vy8UXlk8EE8e1UtUnngcz/Z0dHbJAY5VvUGuzCQxIoKIF6ABax9cXeTCbYJERxIAMsfb0olOydhKcqb5omFb6lcef+6jUsuGQs3B9s+lb8XiCWG0zcWhBQdIzu4/rWRZ2Uc7IkcDAu69AcYBHf27+ldWdJtCD+7OPrSUm1Zg6sqsuaW5zb+N7C4Z7UJMrMMZCkEZ9DVvRdVtZdUhsFLKGjKqhB6D3/Cuf1nw9BZ37uizRRnlGVshx6H6GsQXt1aarBcoXPkDO7H3uc4zVqEHqdjwzmlKm9D16eFF27RtB4z79qnZQkHQEKMjPrVSO6ju4RJH88TxLInP41HvZjjJwxzisW0mcii3o+hIU/cxv6tyPWkYYwAQN3JAphlJRU7Kcg003SrdRQsC0kzbVX9SfpU6Fq5fiUIijqa07dsKA2dvpVCJA0nTitIR7VB55HHtQr9Bu3UcOF3Y46U4OSV3nj1peDEckDH60xlLcg4HSqtYz3B8NuweBwDVfODU4yEHYDjNQ5wpUdDSZURh6VC2CDnP4VITUtvGCSxAIFJK7HJ8quZFwvkg7uBjdk9q5u81mZ7sSWzlUVQOR949zXTeJZfs2nPIcEt8ij3NeftE5uo5RIQioylOxJI5/DH61oo2MZS5kbU2tTTQFHij3EY3is2mg5FOFMgUU4dKaDS0wHU6m06nYQop1MFPzTAUU7sfpVW9Nx9huPsuPtHlt5ef72OKniLiFPMxv2Ddj1xzRYDq1iguI0cqrggENjqOD+XFYWoC4j1rJYgOR0PDrg/y4/KtjSkePTYVcFWxnB7ZPSotVtfNWKdUBaInJz/CQc1J1UZpXv1Kk0M8l5mORlfblSGxtHt2pl/bXJtHN1cs6jGEA4PPfGK0okAO/ueKLmJJ0ETngkHGeuDUMze1jn7US29yJzlWQrlfVSTj+ePxrrM/LWSlk0sl00mV84hUXPRQeP8A9VN1K+yjIjARjhiD19qSTW5EI2Itat0vbV43Ge6+x7Vx40G4ZwZJyF7/ACgE11NvOZYAj4Dx8MAfyodQATnAx1rRPl0NoVZw0ixNGnXT7RLMthEBCMfQ9q0hfWluRJNcIiJyWzn+Vcyv7icPNv8AJYkZz933qLUJpYy8Z8p4ZAChxjjPqKzla9yJTsjqbnU7eaTZb5aQAHJXAwe9ZD6gNO1KDUJUaaNCykA88jkj6VU0jfPOACM+WI1IHcdP61N4gtSLdIAdpCev8WcGtIcrTkFD95OMOh1HhfVX1rSP7QeIRCSaRUTOSFU4Gfet95NxUrkYGK53wckcPhW1jiHyrJKPx3nNbwPHtWMtG0joqRXM7dB2SetPR9rBjyBTMEZx9aOoAGAR1pK5DWg+QN68HnFR4B54HsKevytgnHHWiOMynA7d6p6slOyKtpdW1880cEgNxbvtnhPDIfp6Ed60QirkgYzXGeK9OksdVtNYtpJIZ2Xy2eM45HT8x/KoJ/G+oRW7ottAZFi3ecQcA9BxWkUlqYzbZP40uw88Vop/1Q3t9T0/T+dcx3p0kss8byzyGSV/nZm6nPNM5o3ElYcOtLTad2pgxR1pwpopR1pCHinUwU4VQCinCm0tFxDu9OPQ03PIpexoA6jT5TPZRSMctjBPuKfeHbZzE9NjdPpVSJxp2npGcFznA/GqguZGM8cpLGSIgk9A3YUJGqvbUuwMPLABzt44Oaz21CNtVubSUBJF2hA3VwRkFaFlmR4kD5JIydowo9T/ACrTZIzIrlF3gcNjkUnFxeolJS2ILq4aFQqKzSMOwzj3+tZE0SqpiZi7RNg8Yww6jH1qzqWRexHzRGu07m3YIHPft/8AWrKjjjsVkjV2aMjzF3NuPvz3q6em5pGN0RRXEVpdNIWxuwH5J47Vsq8cgyjqw9jmuZuPMhVklEcjgb2lQ8gEnAP50y3jcXzb3eMwvtYx/gRg9zg/rWEa6q6r+vM19jHlu3qdQYkZdhUFfTFc3qEcIuGSNWManaRnjPc/pit6dj9pt0R8EOSVB5IxgfhT49Nknuo0SAR2iN5jsMfMR6d6l+9dLock02hvhnTn3R3rkCJVIRSctnGOe3A796seILVrm8tUUHDBvMIHOBzke/NSCU2mgEKVE9zlYVPctwPw71ejha3s0heVppEXmRjkse/XtWkXbUum3BXW5Y8NFJNMaKMACK4kTHQdj/WtcD+Vct4Hu2um1W3ZCjJMswDDHDDBH5r+tdSfvenNTU+K5pD4bMf8zZPJqSABpMFe1AgcZIYYxnNMTIbKnBpLR6g/eTSLE4BA+XJFRwL1IbkdqbvdgTntyfaljbD8clhwau65rmdmo2M3xbCJNGdyc+W6so9Ocf1rgBsuU8th8pPY9cetd54quEg0IrIcPPIiAepzk/yrz3TbKSz3K0++IMTGpXkZPc9/SqZMdh8gGZgPQfyqtPE06xhZCm2RXOO4Bzj8aWCTzXuDnJzgn1PNOT7oz6Cp2EkSClpop2aaBiinCminD0oAcKcKbkdKWmIdSimilouA6gMrFgGBKnBAPQ0lV7WyS1uLyZWYm5kEjA9iFA4/KmgNqRpJ5nlyvlv8qENngY5+nNReVIkYWKQlgSSCB8xJyf61XeW7/tNHmMQttuyJI127B159ev6VK1wEudrK4jRd5kUcbgeAf5fjWspxhDmZ0cjSLCJDsEuN5XO1zyR2wDWqPmRT6gVkWMbpZRpM+52O4nAHJOcVeluDbWLziJ5fLzlV64z1/CnWXupnJRdpNDrqyjvIijDnBGcdvQ1z0llmzEMKmJ4QUUdQPbnt/hWxp9xf3d2k0tu1tZtGdsb43ZyME/hniq891HJeNEQY5+S0ZHTBIzn8OfzrOm1szpTcXdGClpLDZiG4YSII2SXYm1pB1FRQNu2lcoZXaRQevB449uK33iz2qv8AZUM251UsDlD3H/66UcLTpz54jcm9GalgiXZD7QGHB9a2VRVTbgEd6oaTHtidx0Jx0+lWZWMV3A2fkfMZ9ielRJJSsiCSWCKYIJEDBHDr7MOhrN/s+4j1CW4W5HluwITB4HcGrwut3IjJHswqnBqyS3M8MyeUVciMkcOuMj6GqdN7ijJT0j0IdHZLTxRIiqqi6BVsDGWxkH9K6/H5VwV9N5OpJcQsGeNlcYPpXeLMlxCk8RBilUOhHoaia6lwkO3EAcnA6UnUdumacFypY9AcU1j82OM1mUGTtIH409JApJK/MentTUbDAbcg9vWuR8V+KDp8j2OnOPtSj95Jx+7J7D3p7K/YTtsU/Fd5Jd63Gm5THZgoPdj94/0qogrHsXmuLYvcKUdnycvuz0Oc1pPeQWlustxIsadMn1rpqJcqaOaD95xIPs7wzSEnKscg1Gn3RViO6+1wGQRsgEhUbupHY/jVOSNpbaWNH2OysoYfwk5GayNCcUtMjBSNVJ3FVAJ9afQJjhS0lKKAHClPtSUopiHCiiloAMmlzSUUIDrW0LTZkAZ7jsfvDtQdAszBJD9suBG7b2GB1q6rLtHzL09aXcvqPzrWUFLcj2s7WuUjoVv+7C3rgIwONg5x2qyukweVs+1ZB65TrUu4eo/Ol3L6j86cve0ZEdNUMXTEH/L2v4rUY0K3a5E5nj3kEHOeQRjmrG5fUfnQCM/eH51PJEtTZmSeGpnP7q9gVQeN2enpTG8MXL4BntjjkMH71rhl9R+dLuB7j860uw9pIz/+EenRwYpUVdwbb5nT6f8A16ttp07qVZEYdxuFTbl/vD86N6/3h+dYuAe0l1MOfR9UjQJbDCk4OSMqPUGsjU9J1uW5Uppkp/dEFlZSGO7jHpxXabx2cfnS+Z1+f/x6tXJtWClVdOfMkeZ3uj+JphC32KYNGgU4QFmx3J/z0qzpM3i6wj8prK5jXOcBNyn3weleieZj/lp/49QZT/z0/wDHqh3e5o66tZRMe18Qypp8kl/pd8LmIgbYYCwlHqKjvPFH2W2eRND1OWUAbY1QHP454rc85/8Anr+tHntj/W8/Wp5ET7V9jzPV/EPii8nDbbm3gYZWK3iK7PZu+awoYb5Z8m3nOeu5GY9c969pFw3/AD0H50ee398fmKJQUlZ7GyxdocrijzIRSxwwpHE5O4A/Kencmry2yvCElXcMhsEdwc13vnH1T9KPO/65/iBVS1SXQ5Yvl1OAvMqEx0J59uKzg2GIz3NenGRCOUhP/ARTCID1hgP/AABajkK9qebbh3p24da9FKW3e2tv++FphhtP+fS2/wC+BS5B+0PPgwp24V3pgsjz9jtf++BTTa2B/wCXG2/75FPlD2hwwIzS7h2rtjaWB/5cbb/vmmmy0/8A58rf8v8A69HIL2hxuRS55rrzZad/z5QUhsdN/wCfOH8//r0+Vj9ojks0xpVVwpzk11xsdOz/AMecQ/E/40xtO0w8mzjJA67j/jQohzo//9k=;" vertex="1" parent="1">
          <mxGeometry x="89.5" y="504" width="35" height="35" as="geometry" />
        </mxCell>
        <mxCell id="1lqiZdlfGEn-UdCL97i5-91" value="r3" style="text;html=1;resizable=0;autosize=1;align=center;verticalAlign=middle;points=[];fillColor=none;strokeColor=none;rounded=0;" vertex="1" parent="1">
          <mxGeometry x="59.5" y="543" width="30" height="20" as="geometry" />
        </mxCell>
        <mxCell id="1lqiZdlfGEn-UdCL97i5-92" value="r4" style="text;html=1;resizable=0;autosize=1;align=center;verticalAlign=middle;points=[];fillColor=none;strokeColor=none;rounded=0;" vertex="1" parent="1">
          <mxGeometry x="59.5" y="584" width="30" height="20" as="geometry" />
        </mxCell>
        <mxCell id="1lqiZdlfGEn-UdCL97i5-93" value="r5" style="text;html=1;resizable=0;autosize=1;align=center;verticalAlign=middle;points=[];fillColor=none;strokeColor=none;rounded=0;" vertex="1" parent="1">
          <mxGeometry x="59.5" y="624" width="30" height="20" as="geometry" />
        </mxCell>
        <object label="&lt;p style=&quot;line-height: 60%&quot;&gt;&lt;span&gt;Conv&lt;/span&gt;&lt;br&gt;&lt;/p&gt;" id="1lqiZdlfGEn-UdCL97i5-94">
          <mxCell style="rounded=0;whiteSpace=wrap;html=1;strokeColor=#000000;fillColor=none;writing-mode=tb-rl;rotation=90;" vertex="1" parent="1">
            <mxGeometry x="140" y="518" width="44" height="12" as="geometry" />
          </mxCell>
        </object>
        <object label="&lt;p style=&quot;line-height: 60%&quot;&gt;&lt;span&gt;PR&lt;/span&gt;&lt;span&gt;elu&lt;/span&gt;&lt;/p&gt;" id="1lqiZdlfGEn-UdCL97i5-95">
          <mxCell style="rounded=0;whiteSpace=wrap;html=1;strokeColor=#000000;fillColor=none;writing-mode=tb-rl;rotation=90;" vertex="1" parent="1">
            <mxGeometry x="164.5" y="518" width="44" height="12" as="geometry" />
          </mxCell>
        </object>
        <object label="&lt;p style=&quot;line-height: 60%&quot;&gt;&lt;span&gt;BN&lt;/span&gt;&lt;br&gt;&lt;/p&gt;" id="1lqiZdlfGEn-UdCL97i5-96">
          <mxCell style="rounded=0;whiteSpace=wrap;html=1;strokeColor=#000000;fillColor=none;writing-mode=tb-rl;rotation=90;" vertex="1" parent="1">
            <mxGeometry x="152.5" y="518" width="44" height="12" as="geometry" />
          </mxCell>
        </object>
      </root>
    </mxGraphModel>
  </diagram>
</mxfile>
